<svg width="842" height="176" viewBox="0 0 842 176" fill="none" xmlns="http://www.w3.org/2000/svg">
<path d="M173.3 88.4598C176.238 88.4598 178.62 86.078 178.62 83.1398C178.62 80.2017 176.238 77.8198 173.3 77.8198C170.362 77.8198 167.98 80.2017 167.98 83.1398C167.98 86.078 170.362 88.4598 173.3 88.4598Z" fill="#F95E08"/>
<path d="M163.44 77.1999C165.307 77.1999 166.82 75.6867 166.82 73.8199C166.82 71.9532 165.307 70.4399 163.44 70.4399C161.573 70.4399 160.06 71.9532 160.06 73.8199C160.06 75.6867 161.573 77.1999 163.44 77.1999Z" fill="#F95E08"/>
<path d="M188.2 89.7499C185.449 91.7704 182.176 92.9607 178.77 93.1799C172.68 93.5599 166.77 91.3299 161.22 88.6899C155.67 86.0499 150.32 82.9999 144.33 83.1699C140.06 83.2699 136.12 85.0199 132.39 87.1699C131.374 91.262 131.279 95.5286 132.111 99.662C132.944 103.795 134.684 107.692 137.205 111.072C139.726 114.451 142.966 117.229 146.691 119.205C150.416 121.18 154.533 122.305 158.745 122.496C162.957 122.688 167.159 121.942 171.048 120.313C174.937 118.684 178.416 116.212 181.234 113.076C184.052 109.939 186.138 106.216 187.343 102.176C188.547 98.135 188.84 93.8774 188.2 89.7099V89.7499ZM141.8 96.5899C141.8 95.8245 142.027 95.0762 142.452 94.4398C142.877 93.8034 143.482 93.3074 144.189 93.0145C144.896 92.7216 145.674 92.6449 146.425 92.7942C147.176 92.9436 147.865 93.3122 148.407 93.8534C148.948 94.3946 149.316 95.0842 149.466 95.8349C149.615 96.5856 149.538 97.3637 149.245 98.0709C148.952 98.778 148.456 99.3824 147.82 99.8077C147.184 100.233 146.435 100.46 145.67 100.46C144.645 100.457 143.664 100.048 142.94 99.3229C142.216 98.5974 141.81 97.6145 141.81 96.5899H141.8ZM149.34 107.85C148.927 107.85 148.523 107.727 148.179 107.498C147.835 107.268 147.567 106.942 147.409 106.56C147.251 106.178 147.21 105.758 147.29 105.352C147.371 104.947 147.57 104.574 147.862 104.282C148.154 103.99 148.527 103.791 148.932 103.71C149.338 103.629 149.758 103.671 150.14 103.829C150.522 103.987 150.848 104.255 151.078 104.599C151.307 104.942 151.43 105.347 151.43 105.76C151.43 106.312 151.211 106.843 150.821 107.234C150.432 107.626 149.903 107.847 149.35 107.85H149.34Z" fill="#F95E08"/>
<path d="M183.48 58.1299L185.16 52.2399L160.37 45.1699L158.65 51.1699C148.381 51.5084 138.572 55.5127 131.001 62.4578C123.429 69.4029 118.594 78.8298 117.372 89.0314C116.15 99.2331 118.621 109.535 124.338 118.072C130.055 126.61 138.639 132.818 148.538 135.572C158.436 138.327 168.994 137.446 178.299 133.09C187.605 128.733 195.042 121.188 199.266 111.822C203.489 102.455 204.219 91.8863 201.323 82.0281C198.428 72.17 192.098 63.6745 183.48 58.0799V58.1299ZM160.05 127.29C155.518 127.293 151.036 126.35 146.89 124.52C146.07 124.16 145.27 123.77 144.49 123.35C144.03 123.097 143.573 122.833 143.12 122.56C142.35 122.09 141.61 121.56 140.88 121.06C139.488 120.051 138.177 118.934 136.96 117.72C136.54 117.3 136.14 116.87 135.74 116.43C135.167 115.763 134.617 115.097 134.09 114.43L133.62 113.8C130.162 109.031 128.058 103.415 127.53 97.5481C127.002 91.6809 128.07 85.7801 130.62 80.4699C131.08 79.5166 131.583 78.5899 132.13 77.6899C134.862 73.1949 138.635 69.4224 143.13 66.6899C144.03 66.1433 144.957 65.6399 145.91 65.1799C151.22 62.6295 157.121 61.5619 162.988 62.09C168.855 62.6181 174.471 64.7223 179.24 68.1799L179.87 68.6499C180.537 69.1766 181.203 69.7266 181.87 70.2999C182.31 70.6999 182.74 71.0999 183.16 71.5199C184.374 72.7371 185.491 74.0478 186.5 75.4399C187.03 76.1599 187.5 76.9099 188 77.6799C188.273 78.1266 188.537 78.5833 188.79 79.0499C189.21 79.8299 189.6 80.6399 189.96 81.4499C192.151 86.4216 193.067 91.8614 192.625 97.2764C192.183 102.691 190.397 107.911 187.429 112.461C184.461 117.012 180.405 120.751 175.628 123.338C170.85 125.926 165.503 127.28 160.07 127.28L160.05 127.29Z" fill="white"/>
<path d="M190.979 41.3272L161.272 32.8594L158.994 40.851L188.701 49.3188L190.979 41.3272Z" fill="white"/>
<path d="M184.12 34.9602C186.257 34.9602 187.99 33.2276 187.99 31.0902C187.99 28.9529 186.257 27.2202 184.12 27.2202C181.983 27.2202 180.25 28.9529 180.25 31.0902C180.25 33.2276 181.983 34.9602 184.12 34.9602Z" fill="#F95E08"/>
<path d="M172.74 27.23C173.983 27.23 174.99 26.2226 174.99 24.98C174.99 23.7373 173.983 22.73 172.74 22.73C171.497 22.73 170.49 23.7373 170.49 24.98C170.49 26.2226 171.497 27.23 172.74 27.23Z" fill="#F95E08"/>
<path d="M184.87 17.3799C186.113 17.3799 187.12 16.3725 187.12 15.1299C187.12 13.8872 186.113 12.8799 184.87 12.8799C183.627 12.8799 182.62 13.8872 182.62 15.1299C182.62 16.3725 183.627 17.3799 184.87 17.3799Z" fill="#F95E08"/>
<path d="M183.48 59L185.16 53.11L160.37 46L158.65 52C148.381 52.3069 138.561 56.2803 130.969 63.2009C123.376 70.1215 118.512 79.5319 117.257 89.7285C116.002 99.9251 118.439 110.234 124.127 118.789C129.816 127.344 138.379 133.58 148.267 136.368C158.155 139.155 168.715 138.31 178.034 133.986C187.353 129.662 194.816 122.144 199.072 112.794C203.328 103.443 204.095 92.8776 201.235 83.0102C198.375 73.1428 192.077 64.6254 183.48 59ZM160.05 126.11C153.948 126.11 147.984 124.301 142.911 120.911C137.837 117.521 133.883 112.703 131.548 107.066C129.213 101.429 128.602 95.2258 129.793 89.2415C130.983 83.2571 133.921 77.7602 138.236 73.4458C142.55 69.1313 148.047 66.1931 154.031 65.0028C160.016 63.8124 166.219 64.4234 171.856 66.7583C177.493 69.0933 182.311 73.0474 185.701 78.1207C189.091 83.1939 190.9 89.1584 190.9 95.26C190.892 103.435 187.64 111.273 181.857 117.051C176.075 122.83 168.235 126.077 160.06 126.08L160.05 126.11Z" fill="white"/>
<path d="M184.57 35.1301C186.707 35.1301 188.44 33.3975 188.44 31.2601C188.44 29.1228 186.707 27.3901 184.57 27.3901C182.433 27.3901 180.7 29.1228 180.7 31.2601C180.7 33.3975 182.433 35.1301 184.57 35.1301Z" fill="#F95E08"/>
<path d="M172.83 86.6499C175.045 86.6499 176.84 84.8545 176.84 82.6399C176.84 80.4252 175.045 78.6299 172.83 78.6299C170.615 78.6299 168.82 80.4252 168.82 82.6399C168.82 84.8545 170.615 86.6499 172.83 86.6499Z" fill="#F95E08"/>
<path d="M165.39 78.1601C166.798 78.1601 167.94 77.0184 167.94 75.6101C167.94 74.2017 166.798 73.0601 165.39 73.0601C163.982 73.0601 162.84 74.2017 162.84 75.6101C162.84 77.0184 163.982 78.1601 165.39 78.1601Z" fill="#F95E08"/>
<path d="M183.91 91.4901C181.577 93.2052 178.8 94.2152 175.91 94.4001C170.75 94.7201 165.71 92.8301 161.04 90.6001C156.37 88.3701 151.8 85.8001 146.73 85.9201C143.11 86.0101 139.73 87.4801 136.61 89.3401C135.75 92.8073 135.67 96.4222 136.376 99.9241C137.082 103.426 138.556 106.727 140.693 109.591C142.829 112.454 145.574 114.807 148.73 116.48C151.886 118.154 155.375 119.106 158.943 119.268C162.512 119.431 166.072 118.799 169.367 117.419C172.662 116.038 175.609 113.944 177.997 111.287C180.384 108.629 182.152 105.475 183.173 102.052C184.194 98.6283 184.442 95.021 183.9 91.4901H183.91ZM143.91 96.3501C143.91 95.6737 144.111 95.0124 144.486 94.45C144.862 93.8876 145.396 93.4492 146.021 93.1904C146.646 92.9315 147.334 92.8638 147.997 92.9958C148.661 93.1277 149.27 93.4535 149.748 93.9318C150.227 94.4101 150.552 95.0194 150.684 95.6829C150.816 96.3463 150.749 97.0339 150.49 97.6588C150.231 98.2838 149.792 98.8179 149.23 99.1937C148.668 99.5695 148.006 99.7701 147.33 99.7701C146.426 99.7648 145.562 99.4021 144.925 98.7613C144.288 98.1205 143.93 97.2537 143.93 96.3501H143.91ZM150.58 106.3C150.216 106.3 149.86 106.192 149.558 105.99C149.255 105.788 149.019 105.5 148.88 105.164C148.741 104.828 148.704 104.458 148.775 104.101C148.846 103.744 149.022 103.416 149.279 103.159C149.536 102.902 149.864 102.726 150.221 102.655C150.578 102.584 150.948 102.621 151.284 102.76C151.62 102.899 151.908 103.135 152.11 103.438C152.312 103.74 152.42 104.096 152.42 104.46C152.42 104.945 152.229 105.41 151.888 105.754C151.547 106.099 151.085 106.295 150.6 106.3H150.58Z" fill="#F95E08"/>
<path d="M191.545 40.1675L161.838 31.6997L159.56 39.6914L189.267 48.1592L191.545 40.1675Z" fill="white"/>
<path d="M173.19 27.3999C174.433 27.3999 175.44 26.3925 175.44 25.1499C175.44 23.9073 174.433 22.8999 173.19 22.8999C171.947 22.8999 170.94 23.9073 170.94 25.1499C170.94 26.3925 171.947 27.3999 173.19 27.3999Z" fill="#F95E08"/>
<path d="M185.32 17.2402C186.563 17.2402 187.57 16.2329 187.57 14.9902C187.57 13.7476 186.563 12.7402 185.32 12.7402C184.077 12.7402 183.07 13.7476 183.07 14.9902C183.07 16.2329 184.077 17.2402 185.32 17.2402Z" fill="#F95E08"/>
<path d="M66.13 21.7798C92.73 21.7798 106.42 36.6998 106.42 36.6998L96.89 51.4598C96.89 51.4598 84.43 39.9298 67.05 39.9298C43.98 39.9298 30.45 57.1498 30.45 77.4498C30.45 98.2098 44.45 116.51 67.2 116.51C86.12 116.51 98.88 102.67 98.88 102.67L109.34 117C109.34 117 94.27 134.68 66.43 134.68C33.07 134.66 10 109.9 10 77.7598C10 46.0798 34 21.7798 66.13 21.7798Z" fill="white"/>
<path d="M244.66 52.5399C261.88 52.5399 267.27 62.5399 267.27 62.5399H267.58C267.58 62.5399 267.43 60.5399 267.43 58.0799V23.6299H287V132.81H268.5V126.35C268.495 124.652 268.598 122.955 268.81 121.27H268.5C268.5 121.27 261.89 134.65 243.89 134.65C222.67 134.65 209.14 117.89 209.14 93.5899C209.14 68.6899 223.9 52.5399 244.66 52.5399ZM248.35 118.2C258.5 118.2 268.03 110.82 268.03 93.4399C268.03 81.2899 261.57 69.2999 248.5 69.2999C237.74 69.2999 228.82 78.0699 228.82 93.5999C228.82 108.52 236.82 118.2 248.35 118.2Z" fill="white"/>
<path d="M305.4 23.6299H324.78V40.9999H305.4V23.6299ZM305.4 54.3899H324.93V132.82H305.4V54.3899Z" fill="white"/>
<path d="M343.38 54.39H362.14V63.46C362.136 65.2577 362.033 67.0538 361.83 68.84H362.14C365.52 62.23 374.14 52.54 389.97 52.54C407.35 52.54 417.19 61.61 417.19 82.37V132.81H397.82V86.37C397.82 76.84 395.36 70.37 385.36 70.37C374.9 70.37 367.21 76.98 364.29 86.37C363.273 89.7604 362.807 93.292 362.91 96.83V132.83H343.38V54.39Z" fill="white"/>
<path d="M464.25 148.5C476.25 148.5 486.39 143.43 486.39 129.43V124.82C486.417 123.432 486.521 122.047 486.7 120.67H486.39C481.78 127.59 475.01 131.28 464.55 131.28C442.1 131.28 429.33 113.13 429.33 91.6C429.33 70.07 441.48 52.54 464.08 52.54C481.15 52.54 487.3 62.54 487.3 62.54H487.76C487.657 61.8281 487.607 61.1094 487.61 60.39V54.39H505.91V128C505.91 154.91 485 165.06 464.54 165.06C454.864 164.988 445.338 162.671 436.71 158.29L442.55 143.37C449.335 146.608 456.734 148.357 464.25 148.5ZM486.86 91.75C486.86 73.91 478.09 69.14 467.48 69.14C455.64 69.15 449 77.76 449 91C449 104.69 456.07 114.84 468.68 114.84C478.09 114.82 486.86 109.44 486.86 91.75Z" fill="white"/>
<path d="M527.45 23.6299H547.29V115.75H594.5V132.82H527.5L527.45 23.6299Z" fill="#F95E08"/>
<path d="M647.09 83.6001H649.7V82.5301C649.7 72.2301 643.24 68.6901 634.63 68.6901C623.4 68.6901 613.1 76.2301 613.1 76.2301L605.72 62.2301C614.715 55.8778 625.468 52.4904 636.48 52.5401C657.09 52.5401 669.08 63.9201 669.08 83.7601V132.82H651.08V126.36C651.081 124.509 651.184 122.66 651.39 120.82H651.08C651.23 120.82 645.08 134.66 627.24 134.66C613.24 134.66 600.64 125.9 600.64 110.21C600.64 85.3001 634.32 83.6001 647.09 83.6001ZM632.17 119.43C642.47 119.43 649.86 108.36 649.86 98.8201V97.0001H646.48C636.48 97.0001 620.34 98.3801 620.34 109.3C620.33 114.51 624.17 119.44 632.17 119.44V119.43Z" fill="#F95E08"/>
<path d="M686.3 23.6299H705.83V57.3099C705.83 61.1599 705.52 63.9199 705.52 63.9199H705.83C705.83 63.9199 712.75 52.5399 729.36 52.5399C750.58 52.5399 764.12 69.2999 764.12 93.5999C764.12 118.51 748.9 134.66 728.12 134.66C711.82 134.66 704.75 122.97 704.75 122.97H704.44C704.65 124.755 704.754 126.552 704.75 128.35V132.81H686.3V23.6299ZM724.75 118.21C735.51 118.21 744.43 109.45 744.43 93.9099C744.43 78.9899 736.43 69.2999 724.9 69.2999C714.75 69.2999 705.22 76.6799 705.22 94.0599C705.21 106.21 711.67 118.2 724.74 118.2L724.75 118.21Z" fill="#F95E08"/>
<path d="M779.48 109.44C779.48 109.44 788.09 118.05 800.86 118.05C806.4 118.05 811.16 115.59 811.16 110.98C811.16 99.29 773.02 100.83 773.02 75.61C773 61 786.1 52.54 803 52.54C820.68 52.54 829.3 61.46 829.3 61.46L822.07 75.92C816.659 71.4734 809.853 69.0764 802.85 69.15C797.78 69.15 792.85 71.3 792.85 76.22C792.85 87.29 830.99 85.91 830.99 111.13C830.99 124.2 819.61 134.66 800.99 134.66C781.46 134.66 770.54 123.13 770.54 123.13L779.48 109.44Z" fill="#F95E08"/>
</svg>
